<svg width="150" height="73" viewBox="0 0 150 73" fill="none" xmlns="http://www.w3.org/2000/svg">
<path fill-rule="evenodd" clip-rule="evenodd" d="M16.4198 51.5353C25.3139 58.775 39.853 55.6403 48.8937 44.5337C57.9345 33.427 58.0533 18.5543 49.1591 11.3145C40.2649 4.07476 25.7258 7.20948 16.6851 18.3161C7.6444 29.4228 7.52561 44.2955 16.4198 51.5353ZM24.1187 49.6118C30.7562 55.0146 41.6063 52.6753 48.3531 44.3867C55.0999 36.0982 55.1885 24.9992 48.5511 19.5963C41.9136 14.1935 31.0636 16.5329 24.3168 24.8214C17.57 33.11 17.4813 44.209 24.1187 49.6118Z" fill="url(#paint0_linear_2266_972)"/>
<path d="M51.0935 34.5174C51.4819 33.7901 50.6822 33.0787 50.0018 33.5442C47.5268 35.2374 45.1801 36.7125 42.8754 37.0865C42.7633 37.1046 42.6476 37.0952 42.5388 37.0626C39.2592 36.0798 37.1031 34.9325 34.5785 33.3545C33.8393 32.8925 32.9092 33.8152 33.3481 34.5683C35.4494 38.1738 37.3196 41.9786 37.5383 42.2744C37.7792 42.6003 37.2597 44.8506 34.407 49.1064C33.933 49.8135 34.708 50.7141 35.4692 50.3333C37.7203 49.2074 40.1416 48.281 43.3973 48.3341C43.5275 48.3362 43.6579 48.3729 43.7712 48.4373C48.5925 51.1765 51.8803 53.6536 55.4254 56.5644C56.1788 57.183 57.1415 56.2121 56.5286 55.4541C53.5243 51.7387 51.1644 48.3095 48.8215 43.2996C48.7837 43.2187 48.759 43.1299 48.751 43.041C48.4579 39.7656 49.6885 37.1486 51.0935 34.5174Z" fill="url(#paint1_linear_2266_972)"/>
<path d="M75.0061 54.9072H67.467L60.2014 33.6963H67.1155L71.1389 48.4229H71.3733L75.3577 33.6963H82.3108L75.0061 54.9072ZM88.0499 33.6963H94.6514V54.9072H88.0499V33.6963ZM91.3702 31.1572C90.7582 31.1572 90.1918 31.0205 89.6709 30.7471C89.1501 30.4606 88.7334 30.0765 88.4209 29.5947C88.1215 29.0999 87.9717 28.5661 87.9717 27.9932C87.9717 27.4202 88.1215 26.8929 88.4209 26.4111C88.7334 25.9163 89.1501 25.5322 89.6709 25.2588C90.1918 24.9723 90.7582 24.8291 91.3702 24.8291C91.9821 24.8291 92.5486 24.9723 93.0694 25.2588C93.6032 25.5322 94.0264 25.9163 94.3389 26.4111C94.6514 26.8929 94.8077 27.4202 94.8077 27.9932C94.8077 28.5661 94.6514 29.0999 94.3389 29.5947C94.0264 30.0765 93.6032 30.4606 93.0694 30.7471C92.5486 31.0205 91.9821 31.1572 91.3702 31.1572ZM111.914 55.2979C109.726 55.2979 107.825 54.8421 106.211 53.9307C104.609 53.0062 103.379 51.7236 102.519 50.083C101.673 48.4294 101.25 46.5218 101.25 44.3604C101.25 42.1989 101.68 40.2979 102.539 38.6572C103.398 37.0036 104.629 35.721 106.23 34.8096C107.845 33.8851 109.739 33.4229 111.914 33.4229C113.828 33.4229 115.514 33.7744 116.973 34.4775C118.431 35.1807 119.564 36.1768 120.371 37.4658C121.191 38.7419 121.627 40.2327 121.68 41.9385H115.547C115.39 40.8447 115 39.9854 114.375 39.3604C113.763 38.7354 112.969 38.4229 111.992 38.4229C110.755 38.4229 109.772 38.9372 109.043 39.9658C108.327 40.9814 107.969 42.4202 107.969 44.2822C107.969 46.1702 108.327 47.6286 109.043 48.6572C109.759 49.6729 110.742 50.1807 111.992 50.1807C112.956 50.1807 113.756 49.8812 114.394 49.2822C115.032 48.6702 115.417 47.8109 115.547 46.7041H121.68C121.614 48.4229 121.178 49.9333 120.371 51.2354C119.564 52.5244 118.437 53.527 116.992 54.2432C115.547 54.9463 113.854 55.2979 111.914 55.2979ZM128.278 26.626H134.88V41.3916H135.153L141.286 33.6963H148.786L141.149 42.9346L149.098 54.9072H141.481L136.266 46.7822L134.88 48.4424V54.9072H128.278V26.626Z" fill="url(#paint2_linear_2266_972)"/>
<defs>
<linearGradient id="paint0_linear_2266_972" x1="49.159" y1="11.3146" x2="16.4197" y2="51.5353" gradientUnits="userSpaceOnUse">
<stop stop-color="#0389FF"/>
<stop offset="1" stop-color="#05EEA9"/>
</linearGradient>
<linearGradient id="paint1_linear_2266_972" x1="43.9173" y1="30.6636" x2="30.6276" y2="48.479" gradientUnits="userSpaceOnUse">
<stop stop-color="#0389FF"/>
<stop offset="1" stop-color="#05EEA9"/>
</linearGradient>
<linearGradient id="paint2_linear_2266_972" x1="104.772" y1="16.9072" x2="104.772" y2="64.9072" gradientUnits="userSpaceOnUse">
<stop stop-color="#0389FF"/>
<stop offset="1" stop-color="#07EEA9"/>
</linearGradient>
</defs>
</svg>
